<?xml version="1.0" encoding="UTF-8" standalone="no"?>
<!-- Created with Inkscape (http://www.inkscape.org/) -->

<svg
   xmlns:dc="http://purl.org/dc/elements/1.1/"
   xmlns:cc="http://creativecommons.org/ns#"
   xmlns:rdf="http://www.w3.org/1999/02/22-rdf-syntax-ns#"
   xmlns:svg="http://www.w3.org/2000/svg"
   xmlns="http://www.w3.org/2000/svg"
   xmlns:sodipodi="http://sodipodi.sourceforge.net/DTD/sodipodi-0.dtd"
   xmlns:inkscape="http://www.inkscape.org/namespaces/inkscape"
   width="210mm"
   height="297mm"
   id="svg3541"
   version="1.1"
   inkscape:version="0.48.4 r9939"
   sodipodi:docname="Novo documento 11">
  <defs
     id="defs3543" />
  <sodipodi:namedview
     id="base"
     pagecolor="#ffffff"
     bordercolor="#666666"
     borderopacity="1.0"
     inkscape:pageopacity="0.0"
     inkscape:pageshadow="2"
     inkscape:zoom="0.35"
     inkscape:cx="384.28571"
     inkscape:cy="491.42857"
     inkscape:document-units="px"
     inkscape:current-layer="layer1"
     showgrid="false"
     inkscape:window-width="1301"
     inkscape:window-height="744"
     inkscape:window-x="65"
     inkscape:window-y="24"
     inkscape:window-maximized="1" />
  <metadata
     id="metadata3546">
    <rdf:RDF>
      <cc:Work
         rdf:about="">
        <dc:format>image/svg+xml</dc:format>
        <dc:type
           rdf:resource="http://purl.org/dc/dcmitype/StillImage" />
        <dc:title></dc:title>
      </cc:Work>
    </rdf:RDF>
  </metadata>
  <g
     inkscape:label="Camada 1"
     inkscape:groupmode="layer"
     id="layer1">
    <text
       transform="scale(0.80369041,1.2442602)"
       sodipodi:linespacing="125%"
       id="text3172-0"
       y="218.36459"
       x="27.467493"
       style="font-size:115.60704041px;font-style:normal;font-weight:normal;line-height:125%;letter-spacing:0px;word-spacing:0px;fill:#000000;fill-opacity:1;stroke:none;font-family:Sans"
       xml:space="preserve"><tspan
         y="218.36459"
         x="27.467493"
         id="tspan3174-4"
         sodipodi:role="line">Atalaia </tspan></text>
    <path
       inkscape:connector-curvature="0"
       id="path3176-8"
       d="m 153.48902,190.55011 c -0.3941,-0.80858 -0.12123,-4.55748 0.60637,-8.33088 l 1.32292,-6.86073 0.25804,8.33089 c 0.24219,7.81892 -0.53389,10.25315 -2.18733,6.86072 z"
       style="fill:#000000;fill-opacity:0" />
    <path
       inkscape:connector-curvature="0"
       id="path3178-3"
       d="m 153.48902,190.55011 c -0.3941,-0.80858 -0.12123,-4.55748 0.60637,-8.33088 l 1.32292,-6.86073 0.25804,8.33089 c 0.24219,7.81892 -0.53389,10.25315 -2.18733,6.86072 z"
       style="fill:#000000;fill-opacity:0" />
    <path
       inkscape:connector-curvature="0"
       id="path3180-7"
       d="m 95.839943,177.31871 c 0.007,-8.62491 0.35174,-11.90945 0.76583,-7.29896 0.41408,4.61048 0.40826,11.66723 -0.0129,15.68166 -0.42121,4.01443 -0.76001,0.24221 -0.75289,-8.3827 z"
       style="fill:#a2c0ec;fill-opacity:1" />
    <path
       inkscape:connector-curvature="0"
       id="path3182-3"
       d="m 132.6536,267.35031 c -5.17594,-6.58013 -7.15274,-20.20344 -4.22074,-29.08752 3.462,-10.48994 10.28277,-14.87919 23.12185,-14.87919 l 10.77327,0 -1.1528,-7.10386 c -1.74975,-10.78242 -6.51038,-14.94475 -15.98192,-13.97334 -4.33446,0.44455 -9.50212,1.52351 -11.48369,2.39771 -3.00832,1.32715 -3.49352,0.8161 -2.94031,-3.09694 0.97969,-6.92969 14.3077,-11.31205 23.20051,-7.62852 10.98889,4.55174 13.63249,13.73616 13.68282,47.53687 0.0363,24.41283 -0.4146,28.91306 -2.89726,28.91306 -2.00633,0 -2.94031,-2.00983 -2.94031,-6.32724 l 0,-6.32725 -6.02333,7.30735 c -7.61423,9.23738 -16.93754,10.1516 -23.13809,2.26887 z m 20.00862,-6.81193 c 5.26638,-4.14254 9.12279,-14.33678 9.14187,-24.16611 l 0.0109,-5.6333 -11.0749,0.91841 c -13.1586,1.09122 -16.36801,4.34679 -16.36801,16.60347 0,5.83267 1.21313,9.65941 3.92042,12.36669 4.95478,4.95479 7.98122,4.93601 14.36969,-0.0892 l 0,10e-6 z"
       style="fill:#a2c0ec;fill-opacity:1" />
    <path
       inkscape:connector-curvature="0"
       id="path3184-3"
       d="m 97.922033,266.30634 c -3.26125,-3.60017 -3.81852,-7.94467 -4.40015,-34.30363 -0.53736,-24.35261 -1.19985,-30.1814 -3.43037,-30.1814 -1.52041,0 -2.76438,-1.76419 -2.76438,-3.92042 0,-2.17801 1.30681,-3.92041 2.94031,-3.92041 2.23857,0 3.01058,-2.69001 3.23472,-11.2712 l 0.29441,-11.27119 1.37139,8.82093 1.37139,8.82094 0.61391,-8.82094 0.61392,-8.82093 1.15065,10.78114 1.150647,10.78114 8.33088,0.60276 c 6.64149,0.48053 8.33088,1.35206 8.33088,4.29776 0,2.94571 -1.68939,3.81723 -8.33088,4.29776 l -8.33088,0.60276 0.0906,27.17712 c 0.0812,24.35153 0.47677,27.45949 3.80501,29.89316 2.04294,1.49384 5.75107,2.71606 8.2403,2.71606 3.21906,0 4.52586,1.13199 4.52586,3.92042 0,5.6982 -13.59578,5.5523 -18.808207,-0.20183 z"
       style="fill:#a2c0ec;fill-opacity:1" />
    <path
       inkscape:connector-curvature="0"
       id="path3186-0"
       d="m 25.300382,266.01812 c 0.63643,-2.42576 6.2524,-25.38709 12.479921,-51.02519 11.14636,-45.88842 11.39864,-46.60614 16.19132,-46.06488 4.65963,0.52624 5.33873,2.48439 15.82622,45.63461 6.02672,24.79663 11.571,47.51054 12.32062,50.47535 1.13869,4.50361 0.73403,5.39057 -2.45933,5.39057 -3.09159,0 -4.34248,-2.34202 -6.54351,-12.25129 l -2.72123,-12.2513 -16.48706,0 -16.48706,0 -2.83033,12.2513 c -2.276241,9.85289 -3.575841,12.25129 -6.638511,12.25129 -2.98528,0 -3.55814,-0.95305 -2.65105,-4.41046 z m 41.477481,-35.28374 c -0.45328,-1.34764 -3.17196,-12.59434 -6.04151,-24.99266 -2.86955,-12.39831 -5.83306,-23.21406 -6.58558,-24.035 -0.75251,-0.82094 -3.83666,9.283 -6.85365,22.45318 -3.017,13.17019 -5.92396,25.08857 -6.45993,26.48528 -0.74126,1.93169 2.34495,2.53946 12.89517,2.53946 10.22846,0 13.65329,-0.64327 13.0455,-2.45026 l 0,0 z"
       style="fill:#a2c0ec;fill-opacity:1" />
    <path
       inkscape:connector-curvature="0"
       id="path3188-6"
       d="m 193.91963,184.17944 c 0,-12.39832 0.31828,-17.47035 0.70728,-11.2712 0.38901,6.19916 0.38901,16.34323 0,22.54239 -0.389,6.19916 -0.70728,1.12712 -0.70728,-11.27119 z"
       style="fill:#a2c0ec;fill-opacity:1" />
    <path
       inkscape:connector-curvature="0"
       id="path3190-4"
       d="m 186.09289,186.13965 c 0,-13.47643 0.31318,-18.98952 0.69595,-12.2513 0.38277,6.73821 0.38277,17.76438 0,24.50259 -0.38277,6.73822 -0.69595,1.22513 -0.69595,-12.25129 z"
       style="fill:#a2c0ec;fill-opacity:1" />
    <path
       inkscape:connector-curvature="0"
       id="path3192-2"
       d="m 187.29772,216.52286 c 0,-46.60938 0.39798,-53.9057 2.94031,-53.9057 2.54233,0 2.94031,7.29632 2.94031,53.9057 0,46.60939 -0.39798,53.90572 -2.94031,53.90572 -2.54233,0 -2.94031,-7.29633 -2.94031,-53.90572 z"
       style="fill:#a2c0ec;fill-opacity:1" />
    <path
       inkscape:connector-curvature="0"
       id="path3194-8"
       d="m 215.77161,268.5246 c -7.63545,-8.43708 -7.26466,-31.9377 0.62846,-39.83082 2.94617,-2.94617 7.33519,-4.30516 15.90629,-4.92514 11.39347,-0.82413 11.83738,-1.05802 11.83738,-6.23692 0,-2.95937 -1.89019,-7.78367 -4.20043,-10.72065 -3.61859,-4.60029 -5.31564,-5.22615 -12.2513,-4.51819 -4.42798,0.45198 -9.59453,1.50725 -11.48123,2.34503 -2.67785,1.1891 -3.43036,0.5953 -3.43036,-2.70691 0,-3.03457 2.07541,-5.09732 7.34313,-7.29831 9.48413,-3.96272 19.22309,-1.66468 24.81245,5.85484 3.70873,4.98944 4.16875,8.65911 4.73023,37.734 0.5446,28.20089 0.23982,32.20705 -2.45026,32.20705 -2.1432,0 -3.09596,-1.92646 -3.15071,-6.37067 l -0.0785,-6.37068 -2.89861,5.34129 c -5.31913,9.8016 -18.77622,12.72306 -25.31655,5.49608 z m 18.46424,-5.87966 c 4.53841,-2.42889 9.90789,-15.7603 9.90789,-24.59945 0,-6.66948 -0.17711,-6.82106 -7.9697,-6.82106 -8.04597,0 -15.32556,2.69916 -17.97304,6.66413 -0.79207,1.18624 -1.45364,5.9057 -1.47015,10.48769 -0.0456,12.64557 8.11251,19.29539 17.505,14.26869 z"
       style="fill:#a2c0ec;fill-opacity:1" />
    <path
       inkscape:connector-curvature="0"
       id="path3196-6"
       d="m 276.33072,232.20453 c -0.002,-21.56229 0.28465,-30.65067 0.63642,-20.19641 0.35177,10.45428 0.35319,28.09615 0.003,39.20417 -0.35004,11.10802 -0.63785,2.55453 -0.63958,-19.00776 z"
       style="fill:#a2c0ec;fill-opacity:1" />
    <path
       inkscape:connector-curvature="0"
       id="path3198-4"
       d="m 269.62644,232.20453 c 0,-32.67013 0.42722,-38.22405 2.94031,-38.22405 2.51309,0 2.94031,5.55392 2.94031,38.22405 0,32.67013 -0.42722,38.22405 -2.94031,38.22405 -2.51309,0 -2.94031,-5.55392 -2.94031,-38.22405 z"
       style="fill:#a2c0ec;fill-opacity:1" />
    <path
       inkscape:connector-curvature="0"
       id="path3200-4"
       d="m 269.62644,170.45798 c 0,-5.66282 0.81675,-7.84082 2.94031,-7.84082 2.12356,0 2.94031,2.178 2.94031,7.84082 0,5.66283 -0.81675,7.84083 -2.94031,7.84083 -2.12356,0 -2.94031,-2.178 -2.94031,-7.84083 z"
       style="fill:#a2c0ec;fill-opacity:1" />
    <path
       inkscape:connector-curvature="0"
       id="path3202-4"
       d="m 301.43857,271.07684 c -7.32297,-2.94638 -11.00935,-25.858 -5.94781,-36.96687 3.10762,-6.82049 11.14176,-10.72637 22.06342,-10.72637 8.50911,0 8.91828,-0.25767 8.91828,-5.61628 0,-8.71616 -6.78856,-15.94601 -14.9727,-15.94601 -3.76602,0 -8.55352,0.91313 -10.63887,2.02917 -3.27769,1.75417 -3.79155,1.36634 -3.79155,-2.86162 0,-4.01834 1.41739,-5.31546 7.94544,-7.27131 21.25961,-6.36954 29.26194,8.83301 29.28716,55.6388 0.0106,19.76921 -0.23107,21.07223 -3.90907,21.07223 -3.10013,0 -3.93683,-1.33296 -3.99889,-6.37067 l -0.0785,-6.37068 -2.89861,5.34129 c -4.41273,8.13138 -13.5006,11.4593 -21.97831,8.04832 z m 15.52767,-8.64687 c 5.17428,-2.76919 9.50622,-13.38768 9.50622,-23.30175 l 0,-7.90379 -8.91004,0 c -6.84642,0 -10.02438,1.11435 -13.72145,4.81142 -7.20627,7.20627 -6.20604,22.35701 1.7294,26.19561 5.56569,2.69228 6.69931,2.71203 11.39587,0.19851 l 0,0 z"
       style="fill:#a2c0ec;fill-opacity:1" />
    <path
       inkscape:connector-curvature="0"
       id="path3204-5"
       d="m 99.543153,178.29881 c 0,-3.77339 0.4034,-5.31706 0.896447,-3.43036 0.49304,1.8867 0.49304,4.97403 0,6.86073 -0.493047,1.8867 -0.896447,0.34303 -0.896447,-3.43037 z"
       style="fill:#a2c0ec;fill-opacity:1" />
    <path
       inkscape:connector-curvature="0"
       id="path3206-8"
       d="m 99.543153,178.29881 c 0,-3.77339 0.4034,-5.31706 0.896447,-3.43036 0.49304,1.8867 0.49304,4.97403 0,6.86073 -0.493047,1.8867 -0.896447,0.34303 -0.896447,-3.43037 z"
       style="fill:#a2c0ec;fill-opacity:1" />
    <path
       inkscape:connector-curvature="0"
       id="path3208-3"
       d="m 104.98467,268.54497 c -7.498387,-1.88202 -9.123247,-7.66536 -10.613687,-37.77717 -0.75742,-15.30234 -2.35013,-28.99482 -3.53935,-30.42774 -1.58188,-1.90606 -1.55318,-3.21437 0.10695,-4.87449 1.24805,-1.24805 2.28268,-4.07747 2.29919,-6.2876 0.0231,-3.08654 0.4316,-3.38422 1.76168,-1.28365 1.39137,2.19736 1.9186,2.00475 2.68291,-0.9801 0.67423,-2.63309 1.01746,-2.14511 1.17863,1.67568 0.19027,4.51079 1.10717,5.39547 5.617957,5.42059 2.96481,0.0165 6.71371,0.8986 8.33088,1.96021 2.61361,1.71573 2.61361,2.14466 0,3.86038 -1.61717,1.06161 -5.36607,1.9437 -8.33088,1.96021 l -5.390567,0.03 0,26.02665 c 0,28.31783 1.477967,33.20979 10.735407,35.53326 2.72043,0.68279 4.94625,2.01235 4.94625,2.95457 0,2.59925 -4.3334,3.57757 -9.78537,2.20918 l 0,0 z"
       style="fill:#a2c0ec;fill-opacity:1" />
    <path
       style="fill:#000000;fill-opacity:0"
       d="m 199.51552,476.68662 c -0.3941,-0.80858 -0.12123,-4.55748 0.60637,-8.33088 l 1.32292,-6.86073 0.25804,8.33089 c 0.24219,7.81892 -0.53389,10.25315 -2.18733,6.86072 z"
       id="path3090-9"
       inkscape:connector-curvature="0" />
    <path
       style="fill:#000000;fill-opacity:0"
       d="m 199.51552,476.68662 c -0.3941,-0.80858 -0.12123,-4.55748 0.60637,-8.33088 l 1.32292,-6.86073 0.25804,8.33089 c 0.24219,7.81892 -0.53389,10.25315 -2.18733,6.86072 z"
       id="path3092-6"
       inkscape:connector-curvature="0" />
    <path
       style="fill:#a2c0ec;fill-opacity:1"
       d="m 141.86646,463.45522 c 0.007,-8.62491 0.35174,-11.90945 0.76583,-7.29896 0.41408,4.61048 0.40826,11.66723 -0.0129,15.68166 -0.42121,4.01443 -0.76001,0.24221 -0.75289,-8.3827 z"
       id="path3104-3"
       inkscape:connector-curvature="0" />
    <path
       style="fill:#a2c0ec;fill-opacity:1"
       d="m 178.6801,553.48681 c -5.17594,-6.58013 -7.15274,-20.20344 -4.22074,-29.08752 3.462,-10.48994 10.28277,-14.87919 23.12185,-14.87919 l 10.77327,0 -1.1528,-7.10385 c -1.74975,-10.78242 -6.51038,-14.94475 -15.98192,-13.97334 -4.33446,0.44455 -9.50212,1.52351 -11.48369,2.39771 -3.00832,1.32715 -3.49352,0.8161 -2.94031,-3.09694 0.97969,-6.92969 14.3077,-11.31205 23.20051,-7.62852 10.98889,4.55174 13.63249,13.73616 13.68282,47.53686 0.0363,24.41283 -0.4146,28.91306 -2.89726,28.91306 -2.00633,0 -2.94031,-2.00983 -2.94031,-6.32724 l 0,-6.32725 -6.02333,7.30735 c -7.61423,9.23738 -16.93754,10.1516 -23.13809,2.26887 z m 20.00862,-6.81193 c 5.26638,-4.14254 9.12279,-14.33678 9.14187,-24.16611 l 0.0109,-5.6333 -11.0749,0.91841 c -13.1586,1.09122 -16.36801,4.34679 -16.36801,16.60347 0,5.83267 1.21313,9.65941 3.92042,12.36669 4.95478,4.95479 7.98122,4.93601 14.36969,-0.0892 l 0,10e-6 z"
       id="path3112-7"
       inkscape:connector-curvature="0" />
    <path
       style="fill:#a2c0ec;fill-opacity:1"
       d="m 143.94855,552.44284 c -3.26125,-3.60017 -3.81852,-7.94467 -4.40015,-34.30363 -0.53736,-24.3526 -1.19985,-30.18139 -3.43037,-30.18139 -1.52041,0 -2.76438,-1.76419 -2.76438,-3.92042 0,-2.17801 1.30681,-3.92041 2.94031,-3.92041 2.23857,0 3.01058,-2.69001 3.23472,-11.2712 l 0.29441,-11.27119 1.37139,8.82093 1.37139,8.82094 0.61391,-8.82094 0.61392,-8.82093 1.15065,10.78114 1.15065,10.78114 8.33088,0.60276 c 6.64149,0.48053 8.33088,1.35206 8.33088,4.29776 0,2.94571 -1.68939,3.81723 -8.33088,4.29776 l -8.33088,0.60276 0.0906,27.17711 c 0.0812,24.35153 0.47677,27.45949 3.80501,29.89316 2.04294,1.49384 5.75107,2.71606 8.2403,2.71606 3.21906,0 4.52586,1.13199 4.52586,3.92042 0,5.6982 -13.59578,5.5523 -18.80821,-0.20183 z"
       id="path3114-8"
       inkscape:connector-curvature="0" />
    <path
       style="fill:#a2c0ec;fill-opacity:1"
       d="m 71.326897,552.15462 c 0.63643,-2.42576 6.2524,-25.38709 12.47992,-51.02518 11.14636,-45.88842 11.39864,-46.60614 16.19132,-46.06488 4.659633,0.52624 5.338733,2.48439 15.826223,45.63461 6.02672,24.79662 11.571,47.51053 12.32062,50.47534 1.13869,4.50361 0.73403,5.39057 -2.45933,5.39057 -3.09159,0 -4.34248,-2.34202 -6.54351,-12.25129 l -2.72123,-12.2513 -16.487063,0 -16.48706,0 -2.83033,12.2513 c -2.27624,9.85289 -3.57584,12.25129 -6.63851,12.25129 -2.98528,0 -3.55814,-0.95305 -2.65105,-4.41046 z m 41.477483,-35.28374 c -0.45328,-1.34764 -3.17196,-12.59434 -6.04151,-24.99265 -2.86955,-12.39831 -5.83306,-23.21406 -6.58558,-24.035 -0.752513,-0.82094 -3.836663,9.283 -6.853653,22.45318 -3.017,13.17019 -5.92396,25.08856 -6.45993,26.48527 -0.74126,1.93169 2.34495,2.53946 12.89517,2.53946 10.228463,0 13.653293,-0.64327 13.045503,-2.45026 l 0,0 z"
       id="path3116-6"
       inkscape:connector-curvature="0" />
    <path
       style="fill:#a2c0ec;fill-opacity:1"
       d="m 239.94613,470.31595 c 0,-12.39832 0.31828,-17.47035 0.70728,-11.2712 0.38901,6.19916 0.38901,16.34323 0,22.54239 -0.389,6.19916 -0.70728,1.12712 -0.70728,-11.27119 z"
       id="path3118-3"
       inkscape:connector-curvature="0" />
    <path
       style="fill:#a2c0ec;fill-opacity:1"
       d="m 232.11939,472.27616 c 0,-13.47643 0.31318,-18.98952 0.69595,-12.2513 0.38277,6.73821 0.38277,17.76438 0,24.50259 -0.38277,6.73822 -0.69595,1.22513 -0.69595,-12.25129 z"
       id="path3120-9"
       inkscape:connector-curvature="0" />
    <path
       style="fill:#a2c0ec;fill-opacity:1"
       d="m 233.32422,502.65937 c 0,-46.60938 0.39798,-53.90571 2.94031,-53.90571 2.54233,0 2.94031,7.29633 2.94031,53.90571 0,46.60938 -0.39798,53.90571 -2.94031,53.90571 -2.54233,0 -2.94031,-7.29633 -2.94031,-53.90571 z"
       id="path3124-3"
       inkscape:connector-curvature="0" />
    <path
       style="fill:#a2c0ec;fill-opacity:1"
       d="m 257.87769,550.74068 c -7.63545,-8.43708 -7.26466,-31.9377 0.62846,-39.83082 2.94617,-2.94617 7.33519,-4.30516 15.90629,-4.92514 11.39347,-0.82413 11.83738,-1.05802 11.83738,-6.23691 0,-2.95937 -1.89019,-7.78367 -4.20043,-10.72065 -3.61859,-4.60029 -5.31564,-5.22615 -12.2513,-4.51819 -4.42798,0.45198 -9.59453,1.50725 -11.48123,2.34503 -2.67785,1.1891 -3.43036,0.5953 -3.43036,-2.70691 0,-3.03457 2.07541,-5.09732 7.34313,-7.29831 9.48413,-3.96272 19.22309,-1.66468 24.81245,5.85484 3.70873,4.98944 4.16875,8.65911 4.73023,37.73399 0.5446,28.20089 0.23982,32.20705 -2.45026,32.20705 -2.1432,0 -3.09596,-1.92646 -3.15071,-6.37067 l -0.0785,-6.37068 -2.89861,5.34129 c -5.31913,9.8016 -18.77622,12.72306 -25.31655,5.49608 z m 18.46424,-5.87966 c 4.53841,-2.42889 9.90789,-15.7603 9.90789,-24.59945 0,-6.66948 -0.17711,-6.82106 -7.9697,-6.82106 -8.04597,0 -15.32556,2.69916 -17.97304,6.66413 -0.79207,1.18624 -1.45364,5.9057 -1.47015,10.48769 -0.0456,12.64557 8.11251,19.29539 17.505,14.26869 z"
       id="path3126-22"
       inkscape:connector-curvature="0" />
    <path
       style="fill:#a2c0ec;fill-opacity:1"
       d="m 322.35722,518.34103 c -0.002,-21.56228 0.28465,-30.65066 0.63642,-20.1964 0.35177,10.45427 0.35319,28.09614 0.003,39.20416 -0.35004,11.10802 -0.63785,2.55453 -0.63958,-19.00776 z"
       id="path3128-7"
       inkscape:connector-curvature="0" />
    <path
       style="fill:#a2c0ec;fill-opacity:1"
       d="m 315.65294,518.34103 c 0,-32.67012 0.42722,-38.22404 2.94031,-38.22404 2.51309,0 2.94031,5.55392 2.94031,38.22404 0,32.67013 -0.42722,38.22405 -2.94031,38.22405 -2.51309,0 -2.94031,-5.55392 -2.94031,-38.22405 z"
       id="path3130-3"
       inkscape:connector-curvature="0" />
    <path
       style="fill:#a2c0ec;fill-opacity:1"
       d="m 315.65294,456.59449 c 0,-5.66282 0.81675,-7.84083 2.94031,-7.84083 2.12356,0 2.94031,2.17801 2.94031,7.84083 0,5.66283 -0.81675,7.84083 -2.94031,7.84083 -2.12356,0 -2.94031,-2.178 -2.94031,-7.84083 z"
       id="path3132-1"
       inkscape:connector-curvature="0" />
    <path
       style="fill:#a2c0ec;fill-opacity:1"
       d="m 353.34569,553.29292 c -7.32297,-2.94638 -11.00935,-25.858 -5.94781,-36.96687 3.10762,-6.82049 11.14176,-10.72637 22.06342,-10.72637 8.50911,0 8.91828,-0.25767 8.91828,-5.61627 0,-8.71616 -6.78856,-15.94601 -14.9727,-15.94601 -3.76602,0 -8.55352,0.91313 -10.63887,2.02917 -3.27769,1.75417 -3.79155,1.36634 -3.79155,-2.86162 0,-4.01834 1.41739,-5.31546 7.94544,-7.27131 21.25961,-6.36954 29.26194,8.83301 29.28716,55.63879 0.0106,19.76921 -0.23107,21.07223 -3.90907,21.07223 -3.10013,0 -3.93683,-1.33296 -3.99889,-6.37067 l -0.0785,-6.37068 -2.89861,5.34129 c -4.41273,8.13138 -13.5006,11.4593 -21.97831,8.04832 z m 15.52767,-8.64687 c 5.17428,-2.76919 9.50622,-13.38768 9.50622,-23.30175 l 0,-7.90379 -8.91004,0 c -6.84642,0 -10.02438,1.11435 -13.72145,4.81142 -7.20627,7.20627 -6.20604,22.35701 1.7294,26.19561 5.56569,2.69228 6.69931,2.71203 11.39587,0.19851 l 0,0 z"
       id="path3134-6"
       inkscape:connector-curvature="0" />
    <path
       style="fill:#a2c0ec;fill-opacity:1"
       d="m 145.56967,464.43532 c 0,-3.77339 0.4034,-5.31706 0.89645,-3.43036 0.49304,1.8867 0.49304,4.97403 0,6.86073 -0.49305,1.8867 -0.89645,0.34303 -0.89645,-3.43037 z"
       id="path3136-4"
       inkscape:connector-curvature="0" />
    <path
       style="fill:#a2c0ec;fill-opacity:1"
       d="m 145.56967,464.43532 c 0,-3.77339 0.4034,-5.31706 0.89645,-3.43036 0.49304,1.8867 0.49304,4.97403 0,6.86073 -0.49305,1.8867 -0.89645,0.34303 -0.89645,-3.43037 z"
       id="path3138-09"
       inkscape:connector-curvature="0" />
    <path
       style="fill:#a2c0ec;fill-opacity:1"
       d="m 151.01119,554.68147 c -7.49839,-1.88202 -9.12325,-7.66536 -10.61369,-37.77717 -0.75742,-15.30233 -2.35013,-28.99481 -3.53935,-30.42773 -1.58188,-1.90606 -1.55318,-3.21437 0.10695,-4.87449 1.24805,-1.24805 2.28268,-4.07747 2.29919,-6.2876 0.0231,-3.08654 0.4316,-3.38422 1.76168,-1.28365 1.39137,2.19736 1.9186,2.00475 2.68291,-0.9801 0.67423,-2.63309 1.01746,-2.14511 1.17863,1.67568 0.19027,4.51079 1.10717,5.39547 5.61796,5.42059 2.96481,0.0165 6.71371,0.8986 8.33088,1.96021 2.61361,1.71573 2.61361,2.14466 0,3.86038 -1.61717,1.06161 -5.36607,1.9437 -8.33088,1.96021 l -5.39057,0.03 0,26.02664 c 0,28.31783 1.47797,33.20979 10.73541,35.53326 2.72043,0.68279 4.94625,2.01235 4.94625,2.95457 0,2.59925 -4.3334,3.57757 -9.78537,2.20918 l 0,0 z"
       id="path3146-3"
       inkscape:connector-curvature="0" />
  </g>
</svg>
